<?xml version="1.0" encoding="UTF-8" standalone="no"?>
<!DOCTYPE svg PUBLIC "-//W3C//DTD SVG 1.1//EN" "http://www.w3.org/Graphics/SVG/1.1/DTD/svg11.dtd">
<svg width="100%" height="100%" viewBox="0 0 512 512" version="1.1" xmlns="http://www.w3.org/2000/svg" xmlns:xlink="http://www.w3.org/1999/xlink" xml:space="preserve" xmlns:serif="http://www.serif.com/" style="fill-rule:evenodd;clip-rule:evenodd;">
    <path d="M512,112L512,400C512,461.814 461.814,512 400,512L112,512C50.186,512 0,461.814 0,400L0,112C0,50.186 50.186,0 112,0L400,0C461.814,0 512,50.186 512,112Z" style="fill:url(#_Linear1);"/>
    <path d="M456,104L456,332C456,349.661 441.661,364 424,364L88,364C70.339,364 56,349.661 56,332L56,104C56,86.339 70.339,72 88,72L424,72C441.661,72 456,86.339 456,104Z" style="fill:none;stroke:url(#_Linear2);stroke-width:28px;"/>
    <path d="M328,372L328,396C328,400.415 324.415,404 320,404L192,404C187.585,404 184,400.415 184,396L184,372C184,367.585 187.585,364 192,364L320,364C324.415,364 328,367.585 328,372Z" style="fill:url(#_Linear3);"/>
    <path d="M368,416C368,422.623 362.623,428 356,428L156,428C149.377,428 144,422.623 144,416C144,409.377 149.377,404 156,404L356,404C362.623,404 368,409.377 368,416Z" style="fill:url(#_Linear4);"/>
    <path d="M412,132L412,304C412,312.831 404.831,320 396,320L116,320C107.169,320 100,312.831 100,304L100,132C100,123.169 107.169,116 116,116L396,116C404.831,116 412,123.169 412,132Z" style="fill:url(#_Linear5);"/>
    <g transform="matrix(8.333333,0,0,8.333333,-1819.908479,-1857.908479)">
        <g transform="matrix(1,0,0,1,237.109017,237.109017)">
            <rect x="0" y="0" width="24" height="24" style="fill:none;fill-rule:nonzero;"/>
        </g>
        <g transform="matrix(1,0,0,1,237.109017,237.109017)">
            <path d="M7,12L12,17L10.5,18.5C9.834,19.188 8.917,19.577 7.959,19.577C6.02,19.577 4.423,17.98 4.423,16.041C4.423,15.083 4.812,14.166 5.5,13.5L7,12" style="fill:none;fill-rule:nonzero;stroke:url(#_Linear2);stroke-width:2px;stroke-linecap:round;stroke-linejoin:round;"/>
        </g>
        <g transform="matrix(1,0,0,1,237.109017,237.109017)">
            <path d="M17,12L12,7L13.5,5.5C14.166,4.812 15.083,4.423 16.041,4.423C17.98,4.423 19.577,6.02 19.577,7.959C19.577,8.917 19.188,9.834 18.5,10.5L17,12" style="fill:none;fill-rule:nonzero;stroke:url(#_Linear2);stroke-width:2px;stroke-linecap:round;stroke-linejoin:round;"/>
        </g>
        <g transform="matrix(1,0,0,1,237.109017,237.109017)">
            <path d="M3,21L5.5,18.5" style="fill:none;fill-rule:nonzero;stroke:url(#_Linear2);stroke-width:2px;stroke-linecap:round;stroke-linejoin:round;"/>
        </g>
        <g transform="matrix(1,0,0,1,237.109017,237.109017)">
            <path d="M18.5,5.5L21,3" style="fill:none;fill-rule:nonzero;stroke:url(#_Linear2);stroke-width:2px;stroke-linecap:round;stroke-linejoin:round;"/>
        </g>
        <g transform="matrix(1,0,0,1,237.109017,237.109017)">
            <path d="M10,11L8,13" style="fill:none;fill-rule:nonzero;stroke:url(#_Linear2);stroke-width:2px;stroke-linecap:round;stroke-linejoin:round;"/>
        </g>
        <g transform="matrix(1,0,0,1,237.109017,237.109017)">
            <path d="M13,14L11,16" style="fill:none;fill-rule:nonzero;stroke:url(#_Linear2);stroke-width:2px;stroke-linecap:round;stroke-linejoin:round;"/>
        </g>
    </g>
    <defs>
        <linearGradient id="_Linear1" x1="0" y1="0" x2="1" y2="0" gradientUnits="userSpaceOnUse" gradientTransform="matrix(512,512,-512,512,0,0)"><stop offset="0" style="stop-color:rgb(27,44,50);stop-opacity:1"/><stop offset="1" style="stop-color:rgb(34,55,63);stop-opacity:1"/></linearGradient>
        <linearGradient id="_Linear2" x1="0" y1="0" x2="1" y2="0" gradientUnits="userSpaceOnUse" gradientTransform="matrix(400,292,-292,400,56,72)"><stop offset="0" style="stop-color:rgb(157,217,154);stop-opacity:1"/><stop offset="1" style="stop-color:rgb(93,166,234);stop-opacity:1"/></linearGradient>
        <linearGradient id="_Linear3" x1="0" y1="0" x2="1" y2="0" gradientUnits="userSpaceOnUse" gradientTransform="matrix(144,40,-40,144,184,364)"><stop offset="0" style="stop-color:rgb(157,217,154);stop-opacity:1"/><stop offset="1" style="stop-color:rgb(93,166,234);stop-opacity:1"/></linearGradient>
        <linearGradient id="_Linear4" x1="0" y1="0" x2="1" y2="0" gradientUnits="userSpaceOnUse" gradientTransform="matrix(224,24,-24,224,144,404)"><stop offset="0" style="stop-color:rgb(157,217,154);stop-opacity:0.5"/><stop offset="1" style="stop-color:rgb(93,166,234);stop-opacity:0.5"/></linearGradient>
        <linearGradient id="_Linear5" x1="0" y1="0" x2="1" y2="0" gradientUnits="userSpaceOnUse" gradientTransform="matrix(312,204,-204,312,100,116)"><stop offset="0" style="stop-color:rgb(157,217,154);stop-opacity:0.1"/><stop offset="1" style="stop-color:rgb(93,166,234);stop-opacity:0.1"/></linearGradient>
    </defs>
</svg>
